<?xml version="1.0" encoding="utf-8"?>
<!-- Generator: Adobe Illustrator 17.0.0, SVG Export Plug-In . SVG Version: 6.00 Build 0)  -->
<!DOCTYPE svg PUBLIC "-//W3C//DTD SVG 1.1//EN" "http://www.w3.org/Graphics/SVG/1.1/DTD/svg11.dtd">
<svg version="1.1" id="Layer_1" xmlns="http://www.w3.org/2000/svg" xmlns:xlink="http://www.w3.org/1999/xlink" x="0px" y="0px"
	 width="683.787px" height="156.981px" viewBox="0.398 0.003 683.787 156.981" enable-background="new 0.398 0.003 683.787 156.981"
	 xml:space="preserve">
<title>Group 29</title>
<desc>Created with Sketch.</desc>
<g id="Page-1">
	<g id="Group-29">
		<path id="Fill-1" fill="#FFFFFF" d="M236.485,116.067c-24.139,0-36.261-17.553-36.261-36.864
			c0-19.285,12.541-36.653,36.497-36.653c9.193,0,15.713,2.022,21.236,5.67l-6.867,11.347c-3.879-2.505-8.19-4.131-14.605-4.131
			c-12.915,0-19.86,10.389-19.86,23.336c0,13.343,6.624,24.294,20.096,24.294c7.607,0,12.174-2.69,15.824-5.406l6.336,10.924
			C255.29,111.857,246.759,116.067,236.485,116.067"/>
		<path id="Fill-3" fill="#FFFFFF" d="M287.948,116.067c-18.012,0-25.961-13.667-25.961-27.09c0-13.429,7.843-27.44,25.856-27.44
			c18.039,0,26.249,13.561,26.249,26.991C314.092,101.739,306.065,116.067,287.948,116.067 M287.66,72.402
			c-7.745,0-10.248,6.556-10.248,16.126c0,9.589,3.034,16.456,10.772,16.456c7.817,0,10.49-6.417,10.49-16.007
			S295.477,72.402,287.66,72.402"/>
		<path id="Fill-5" fill="#FFFFFF" d="M336.906,62.816v33.355c0,5.115,1.769,7.673,6.71,7.673c5.203,0,9.193-4.99,10.241-6.265
			V62.816h14.559v36.706c0,6.801,0.74,12.094,1.396,15.273h-14.337c-0.426-1.388-0.957-4.798-1.061-6.906
			c-2.772,3.569-8.079,8.182-16.584,8.182c-11.355,0-15.477-7.349-15.477-16.892V62.816H336.906z"/>
		<path id="Fill-7" fill="#FFFFFF" d="M404.062,116.067c-16.61,0-26.911-10.944-26.911-27.202c0-17.467,11.565-27.328,27.337-27.328
			c8.348,0,13.334,2.505,15.765,4.104l-4.619,10.019c-2.3-1.467-5.576-3.014-10.667-3.014c-8.092,0-12.391,6.311-12.391,15.769
			c0,9.51,4.095,16.331,12.705,16.331c5.884,0,9.403-2.161,10.982-3.086l4.416,9.775C418.242,113,413.491,116.067,404.062,116.067"
			/>
		<path id="Fill-9" fill="#FFFFFF" d="M459.577,114.791V81.437c0-5.115-1.776-7.666-6.624-7.666c-5.288,0-9.278,4.897-10.333,6.278
			v34.743h-14.553V38.076h14.553v30.949c2.667-2.881,7.607-7.488,16.034-7.488c11.355,0,15.477,7.296,15.477,16.912v36.342H459.577z
			"/>
		<path id="Fill-11" fill="#FFFFFF" d="M500.534,38.074v28.815c2.326-2.366,6.841-5.353,12.574-5.353
			c12.803,0,21.865,8.843,21.865,26.878c0,17.877-11.912,27.652-27.52,27.652c-11.755,0-18.936-2.954-21.472-4.15V38.074H500.534z
			 M500.534,103.495c0.95,0.317,3.119,1.117,6.919,1.117c7.529,0,12.096-5.538,12.096-16.198c0-9.609-3.224-15.313-10.562-15.313
			c-4.331,0-7.581,2.769-8.453,3.866V103.495z"/>
		<path id="Fill-13" fill="#FFFFFF" d="M571.113,114.791c-0.419-1.282-0.767-3.919-0.871-5.518c-2.3,2.796-7.129,6.794-14.396,6.794
			c-8.793,0-15.608-5.327-15.608-14.678c0-13.502,13.76-18.485,27.468-18.485h1.769v-2.855c0-4.309-1.743-6.953-8.217-6.953
			c-6.605,0-11.172,3.47-13.072,4.851l-6.284-8.896c3.112-2.829,9.979-7.514,21.053-7.514c14.284,0,20.994,5.485,20.994,19.364
			v18.254c0,7.164,0.74,12.279,1.481,15.637H571.113z M569.475,91.885h-1.769c-8,0-13.524,2.392-13.524,8.281
			c0,3.701,2.935,5.3,6.126,5.3c4.888,0,7.712-2.822,9.167-4.368V91.885z"/>
		<path id="Fill-15" fill="#FFFFFF" d="M610.119,116.067c-9.324,0-15.267-2.769-18.432-4.904l4.855-10.224
			c2.038,1.381,7.024,4.256,12.705,4.256c5.307,0,8.289-1.513,8.289-4.474c0-3.404-5.845-4.309-13.151-7.851
			c-7.09-3.443-11.296-7.468-11.296-15.293c0-9.834,7.732-16.04,19.454-16.04c8.826,0,14.245,2.716,16.617,4.131l-5.045,9.993
			c-2.031-1.256-6.074-3.258-10.988-3.258c-4.908,0-6.972,1.738-6.972,4.395c0,3.417,4.75,4.243,10.648,6.635
			c8.138,3.311,13.917,7.144,13.917,15.881C630.72,110.311,622.929,116.067,610.119,116.067"/>
		<path id="Fill-17" fill="#FFFFFF" d="M664.433,105.198c6.972,0,10.805-2.26,13.367-3.542l4.646,9.404
			c-3.433,1.943-8.688,5.01-19.362,5.01c-17.324,0-27.179-10.898-27.179-27.519c0-16.516,11.336-27.017,25.679-27.017
			c16.243,0,24.087,11.38,22.37,30.804h-32.487C652.154,100.089,656.112,105.198,664.433,105.198L664.433,105.198z M669.977,82.477
			c-0.098-5.756-2.372-10.416-8.61-10.416c-5.76,0-9.029,3.701-9.979,10.416H669.977z"/>
		<path id="Fill-19" fill="#EA2328" d="M131.31,92.249c0,4.69-2.74,8.915-8.046,9.837c-9.211,1.616-28.544,2.603-44.753,2.603
			s-35.542-0.988-44.759-2.603c-5.299-0.922-8.039-5.148-8.039-9.837V61.598c-0.007-4.696,3.606-9.079,8.039-9.844
			c2.74-0.477,9.068-0.929,14.034-0.916c1.875,0.007,3.385,1.478,3.391,3.722c0,0.007-0.007,21.428-0.007,21.428
			c9.523-0.033,17.79-0.569,27.34-0.569c9.543,0,17.816,0.536,27.333,0.569V54.56c0.007-2.244,1.517-3.715,3.385-3.722
			c4.967-0.013,11.3,0.438,14.034,0.916c4.439,0.765,8.046,5.148,8.046,9.844V92.249z M78.512,0.003
			c-43.138,0-78.114,35.144-78.114,78.491s34.975,78.491,78.114,78.491s78.114-35.144,78.114-78.491S121.65,0.003,78.512,0.003
			L78.512,0.003z"/>
	</g>
</g>
</svg>
